{"title":"Arirang.2011.DVDRip.AC3.HORiZON-ArtSubs","uid":7854638,"size":1468068254,"categoryP":"video","categoryS":"movies","magnet":"?xt=urn:btih:70cec472ce8f069f58f74df32013d29e98a15a84&amp;dn=Arirang.2011.DVDRip.AC3.HORiZON-ArtSubs&amp;tr=udp%3A%2F%2Ftracker.openbittorrent.com%3A80&amp;tr=udp%3A%2F%2Fopen.demonii.com%3A1337&amp;tr=udp%3A%2F%2Ftracker.coppersurfer.tk%3A6969&amp;tr=udp%3A%2F%2Fexodus.desync.com%3A6969","seeders":3,"leechers":2,"uploader":"lletaif","files":3,"time":1353710733,"description":"Imdb: http://www.imdb.com/title/tt1922551/\n\nSubtitle: English\n\nRip Spects:\n\nGeneral\nComplete name                    : Arirang.2011.DVDRip.AC3.HORiZON-ArtSubs.avi\nFormat                           : AVI\nFormat/Info                      : Audio Video Interleave\nFile size                        : 1.36 GiB\nDuration                         : 1h 30mn\nOverall bit rate                 : 2 161 Kbps\nWriting application              : FairUse Wizard - http://fairusewizard.com\nWriting library                  : The best and REALLY easy backup tool\n\nVideo\nID                               : 0\nFormat                           : MPEG-4 Visual\nFormat profile                   : Advanced Simple@L5\nFormat settings, BVOP            : 1\nFormat settings, QPel            : No\nFormat settings, GMC             : No warppoints\nFormat settings, Matrix          : Default (MPEG)\nMuxing mode                      : Packed bitstream\nCodec ID                         : XVID\nCodec ID/Hint                    : XviD\nDuration                         : 1h 30mn\nBit rate                         : 1 959 Kbps\nWidth                            : 688 pixels\nHeight                           : 384 pixels\nDisplay aspect ratio             : 16:9\nFrame rate                       : 23.976 fps\nColor space                      : YUV\nChroma subsampling               : 4:2:0\nBit depth                        : 8 bits\nScan type                        : Progressive\nCompression mode                 : Lossy\nBits/(Pixel*Frame)               : 0.309\nStream size                      : 1.24 GiB (91%)\nWriting library                  : XviD 1.2.0.dev47 (UTC 2006-11-01)\n\nAudio\nID                               : 1\nFormat                           : AC-3\nFormat/Info                      : Audio Coding 3\nMode extension                   : CM (complete main)\nCodec ID                         : 2000\nDuration                         : 1h 30mn\nBit rate mode                    : Constant\nBit rate                         : 192 Kbps\nChannel(s)                       : 2 channels\nChannel positions                : Front: L R\nSampling rate                    : 48.0 KHz\nBit depth                        : 16 bits\nCompression mode                 : Lossy\nStream size                      : 124 MiB (9%)\nAlignment                        : Split accross interleaves\nInterleave, duration             : 42 ms (1.00 video frame)\nInterleave, preload duration     : 500 ms\n\n","torrent":{"xt":"urn:btih:70cec472ce8f069f58f74df32013d29e98a15a84","amp;dn":"Arirang.2011.DVDRip.AC3.HORiZON-ArtSubs","amp;tr":["udp%3A%2F%2Ftracker.openbittorrent.com%3A80","udp%3A%2F%2Fopen.demonii.com%3A1337","udp%3A%2F%2Ftracker.coppersurfer.tk%3A6969","udp%3A%2F%2Fexodus.desync.com%3A6969"],"infoHash":"70cec472ce8f069f58f74df32013d29e98a15a84","infoHashBuffer":{"type":"Buffer","data":[112,206,196,114,206,143,6,159,88,247,77,243,32,19,210,158,152,161,90,132]},"announce":[],"urlList":[]}}